# xmcd
#
# Track frame offsets: 
#        150
#        17209
#        36128
#        48803
#        68895
#        83772
#        102099
#        116532
#        135792
#        152740
#        168305
#        183292
#
# Disc length: 2732 seconds
#
# Revision: 0
# Processed by: cddbd v1.5.2PL0 Copyright (c) Steve Scherf et al.
# Submitted via: ExactAudioCopy v1.0b3
#
DISCID=890aaa0c
DTITLE=Dean Brody - Crop Circles
DYEAR=2013
DGENRE=Country
TTITLE0=Four Wheel Drive
TTITLE1=Bounty (feat. Lindi Ortega)
TTITLE2=Sand in My Soul
TTITLE3=Crop Circles
TTITLE4=Mountain Man
TTITLE5=Another Man's Gold
TTITLE6=Back to the Front Porch
TTITLE7=Marianne
TTITLE8=The Little Things About Us
TTITLE9=My Last Broken Heart
TTITLE10=The Old Sand Bar
TTITLE11=Kansas Cried
EXTD=
EXTT0=
EXTT1=
EXTT2=
EXTT3=
EXTT4=
EXTT5=
EXTT6=
EXTT7=
EXTT8=
EXTT9=
EXTT10=
EXTT11=
PLAYORDER=
